<svg width="124" height="59" viewBox="0 0 124 59" fill="none" xmlns="http://www.w3.org/2000/svg">
<mask id="path-1-inside-1_433_11089" fill="white">
<path d="M50.982 17.7164C47.9837 13.9323 43.8707 11.1876 39.2256 9.87133C34.5805 8.55503 29.6389 8.73384 25.1011 10.3824C20.5633 12.031 16.6594 15.0658 13.9424 19.0567C11.2255 23.0477 9.83329 27.7924 9.96316 32.6187C10.093 37.4449 11.7383 42.1079 14.666 45.947C17.5936 49.786 21.6551 52.6065 26.275 54.0086C30.8949 55.4108 35.8389 55.3236 40.4065 53.7594C44.9741 52.1952 48.9336 49.2333 51.7241 45.2934L50.1893 44.2064C47.627 47.8242 43.9913 50.5439 39.7972 51.9802C35.6031 53.4164 31.0634 53.4965 26.8212 52.209C22.5791 50.9215 18.8497 48.3317 16.1615 44.8065C13.4732 41.2814 11.9624 36.9997 11.8432 32.5681C11.7239 28.1365 13.0023 23.7797 15.4971 20.1151C17.9919 16.4505 21.5766 13.6639 25.7433 12.1501C29.9101 10.6363 34.4475 10.4721 38.7128 11.6808C42.9781 12.8895 46.7548 15.4097 49.5079 18.8844L50.982 17.7164Z"/>
</mask>
<path d="M50.982 17.7164C47.9837 13.9323 43.8707 11.1876 39.2256 9.87133C34.5805 8.55503 29.6389 8.73384 25.1011 10.3824C20.5633 12.031 16.6594 15.0658 13.9424 19.0567C11.2255 23.0477 9.83329 27.7924 9.96316 32.6187C10.093 37.4449 11.7383 42.1079 14.666 45.947C17.5936 49.786 21.6551 52.6065 26.275 54.0086C30.8949 55.4108 35.8389 55.3236 40.4065 53.7594C44.9741 52.1952 48.9336 49.2333 51.7241 45.2934L50.1893 44.2064C47.627 47.8242 43.9913 50.5439 39.7972 51.9802C35.6031 53.4164 31.0634 53.4965 26.8212 52.209C22.5791 50.9215 18.8497 48.3317 16.1615 44.8065C13.4732 41.2814 11.9624 36.9997 11.8432 32.5681C11.7239 28.1365 13.0023 23.7797 15.4971 20.1151C17.9919 16.4505 21.5766 13.6639 25.7433 12.1501C29.9101 10.6363 34.4475 10.4721 38.7128 11.6808C42.9781 12.8895 46.7548 15.4097 49.5079 18.8844L50.982 17.7164Z" stroke="#F4F7FA" stroke-width="4" stroke-linecap="round" stroke-linejoin="round" mask="url(#path-1-inside-1_433_11089)"/>
<circle cx="16.9548" cy="15.45" r="7" fill="#FDB94B"/>
<path d="M24.2813 23.2051C22.2466 25.0219 19.6093 26.0179 16.8815 25.9998C14.1538 25.9816 11.5301 24.9505 9.5197 23.1067C7.50936 21.2629 6.25581 18.7379 6.0024 16.0219C5.74899 13.3058 6.5138 10.5925 8.14836 8.40864C9.78292 6.22476 12.1706 4.72613 14.848 4.20366C17.5253 3.68118 20.3013 4.17214 22.637 5.58122C24.9727 6.99031 26.7015 9.217 27.4879 11.829C28.2742 14.4411 28.062 17.2521 26.8924 19.7165L26.0108 19.2981C27.0766 17.0523 27.27 14.4907 26.5535 12.1103C25.8369 9.73003 24.2614 7.70088 22.1329 6.4168C20.0044 5.13272 17.4747 4.68532 15.0349 5.16144C12.595 5.63756 10.4192 7.00325 8.92962 8.99338C7.44006 10.9835 6.7431 13.4561 6.97403 15.9312C7.20496 18.4063 8.3473 20.7073 10.1793 22.3875C12.0113 24.0678 14.4023 25.0074 16.8881 25.0239C19.3738 25.0405 21.7771 24.1328 23.6313 22.4772L24.2813 23.2051Z" fill="white"/>
<path d="M34.1526 25.44C35.166 25.44 36.026 25.56 36.7326 25.8C37.4526 26.04 38.026 26.4333 38.4526 26.98C38.8793 27.5267 39.186 28.26 39.3726 29.18C39.5726 30.1 39.6726 31.24 39.6726 32.6C39.6726 33.9467 39.5726 35.0867 39.3726 36.02C39.186 36.94 38.8793 37.6733 38.4526 38.22C38.026 38.7667 37.4526 39.16 36.7326 39.4C36.026 39.64 35.166 39.76 34.1526 39.76C33.126 39.76 32.2593 39.64 31.5526 39.4C30.846 39.16 30.2726 38.7667 29.8326 38.22C29.406 37.6733 29.0926 36.94 28.8926 36.02C28.6926 35.0867 28.5926 33.9467 28.5926 32.6C28.5926 31.24 28.6926 30.1 28.8926 29.18C29.0926 28.26 29.406 27.5267 29.8326 26.98C30.2726 26.4333 30.846 26.04 31.5526 25.8C32.2593 25.56 33.126 25.44 34.1526 25.44ZM33.2926 40.32C34.106 40.6667 34.9593 40.9467 35.8526 41.16C36.746 41.3867 37.6993 41.58 38.7126 41.74L38.1126 43.66C37.0326 43.4333 36.0526 43.12 35.1726 42.72C34.2926 42.3333 33.486 41.92 32.7526 41.48L33.2926 40.32ZM34.1526 27.18C33.286 27.18 32.5993 27.3467 32.0926 27.68C31.586 28.0133 31.226 28.5733 31.0126 29.36C30.8126 30.1333 30.7126 31.2133 30.7126 32.6C30.7126 33.9733 30.8126 35.0533 31.0126 35.84C31.226 36.6267 31.586 37.1867 32.0926 37.52C32.5993 37.8533 33.286 38.02 34.1526 38.02C35.0193 38.02 35.6993 37.8533 36.1926 37.52C36.686 37.1867 37.0393 36.6267 37.2526 35.84C37.4793 35.0533 37.5926 33.9733 37.5926 32.6C37.5926 31.2133 37.4793 30.1333 37.2526 29.36C37.0393 28.5733 36.686 28.0133 36.1926 27.68C35.6993 27.3467 35.0193 27.18 34.1526 27.18ZM43.8297 29.74V36.5C43.8297 37.0867 43.943 37.5 44.1697 37.74C44.3963 37.98 44.7763 38.1 45.3097 38.1C45.8297 38.1 46.343 37.98 46.8497 37.74C47.3697 37.5 47.9963 37.1467 48.7297 36.68L48.9497 37.94C48.203 38.54 47.4697 38.9933 46.7497 39.3C46.043 39.6067 45.323 39.76 44.5897 39.76C42.803 39.76 41.9097 38.8667 41.9097 37.08V29.74H43.8297ZM50.4697 29.74V39.5H48.9097L48.7297 37.64L48.5297 37.34V29.74H50.4697ZM55.0341 29.74V39.5H53.1341V29.74H55.0341ZM54.5341 25.56C54.9207 25.56 55.1141 25.7533 55.1141 26.14V27.28C55.1141 27.6667 54.9207 27.86 54.5341 27.86H53.6341C53.2474 27.86 53.0541 27.6667 53.0541 27.28V26.14C53.0541 25.7533 53.2474 25.56 53.6341 25.56H54.5341ZM63.2926 31.24L65.4726 31.26L59.3326 38.02L57.1526 38L63.2926 31.24ZM65.5326 38V39.5H57.1526V38H65.5326ZM65.4726 29.74V31.26H57.2126V29.74H65.4726ZM72.5866 25.52C73.7199 25.52 74.6199 25.6467 75.2866 25.9C75.9532 26.1533 76.4266 26.5933 76.7066 27.22C76.9999 27.8467 77.1466 28.7333 77.1466 29.88C77.1466 31.0133 77.0066 31.9 76.7266 32.54C76.4466 33.1667 75.9866 33.6067 75.3466 33.86C74.7199 34.1 73.8799 34.22 72.8266 34.22C72.2532 34.22 71.6999 34.2067 71.1666 34.18C70.6466 34.1533 70.1666 34.1133 69.7266 34.06C69.2866 34.0067 68.9066 33.9533 68.5866 33.9C68.2799 33.8333 68.0666 33.7733 67.9466 33.72L68.0066 32.56C68.7266 32.56 69.4732 32.56 70.2466 32.56C71.0199 32.56 71.7932 32.56 72.5666 32.56C73.2066 32.5467 73.7132 32.4667 74.0866 32.32C74.4599 32.1733 74.7266 31.9067 74.8866 31.52C75.0466 31.1333 75.1266 30.5867 75.1266 29.88C75.1266 29.16 75.0466 28.6067 74.8866 28.22C74.7266 27.8333 74.4599 27.5667 74.0866 27.42C73.7132 27.26 73.2066 27.18 72.5666 27.18C71.4466 27.18 70.4799 27.1867 69.6666 27.2C68.8532 27.2133 68.3066 27.2333 68.0266 27.26L67.7466 25.7C68.2532 25.6467 68.7332 25.6067 69.1866 25.58C69.6399 25.5533 70.1332 25.54 70.6666 25.54C71.1999 25.5267 71.8399 25.52 72.5866 25.52ZM69.7466 25.7V39.5H67.7466V25.7H69.7466ZM80.5611 29.74L80.8011 31.62L80.9811 31.9V39.5H79.0611V29.74H80.5611ZM85.3411 29.5L85.1411 31.3H84.5211C83.9744 31.3 83.4144 31.4067 82.8411 31.62C82.2811 31.8333 81.5944 32.14 80.7811 32.54L80.6411 31.36C81.3478 30.7733 82.0611 30.32 82.7811 30C83.5144 29.6667 84.2211 29.5 84.9011 29.5H85.3411ZM90.7717 29.5C91.9184 29.5 92.8317 29.6667 93.5117 30C94.205 30.3333 94.6984 30.88 94.9917 31.64C95.2984 32.3867 95.4517 33.38 95.4517 34.62C95.4517 35.8733 95.2984 36.88 94.9917 37.64C94.6984 38.3867 94.205 38.9267 93.5117 39.26C92.8317 39.5933 91.9184 39.76 90.7717 39.76C89.6384 39.76 88.725 39.5933 88.0317 39.26C87.3517 38.9267 86.8584 38.3867 86.5517 37.64C86.245 36.88 86.0917 35.8733 86.0917 34.62C86.0917 33.38 86.245 32.3867 86.5517 31.64C86.8584 30.88 87.3517 30.3333 88.0317 30C88.725 29.6667 89.6384 29.5 90.7717 29.5ZM90.7717 31.06C90.105 31.06 89.5784 31.1667 89.1917 31.38C88.805 31.5933 88.5317 31.96 88.3717 32.48C88.2117 32.9867 88.1317 33.7 88.1317 34.62C88.1317 35.54 88.2117 36.26 88.3717 36.78C88.5317 37.3 88.805 37.6667 89.1917 37.88C89.5784 38.08 90.105 38.18 90.7717 38.18C91.4384 38.18 91.965 38.08 92.3517 37.88C92.7517 37.6667 93.0317 37.3 93.1917 36.78C93.3517 36.26 93.4317 35.54 93.4317 34.62C93.4317 33.7 93.3517 32.9867 93.1917 32.48C93.0317 31.96 92.7517 31.5933 92.3517 31.38C91.965 31.1667 91.4384 31.06 90.7717 31.06Z" fill="white"/>
</svg>
